<svg xmlns="http://www.w3.org/2000/svg" viewBox="0 0 404.76 120.87"><defs><style>.cls-1{fill:#ec0000;}</style></defs><title>20180903-aufstehen-logo</title><g id="Ebene_1" data-name="Ebene 1"><path class="cls-1" d="M142,200.66h4.08c6.11,0,9.33,3.19,9.33,8.59,0,8-4.47,13.43-11.91,13.43h-5.91Zm1.49,19.89c5.7,0,9.26-4.57,9.26-11.13,0-4.15-2.35-6.63-6.76-6.63h-1.83l-3.55,17.76Z" transform="translate(-137.58 -102.21)"/><path class="cls-1" d="M162.78,200.66h2.61l-4.4,22h-2.61Z" transform="translate(-137.58 -102.21)"/><path class="cls-1" d="M172.17,200.66h12.14l-.44,2.21h-9.56L172.89,210H181l-.45,2.21h-8l-1.71,8.27h9.87l-.45,2.2H167.77Z" transform="translate(-137.58 -102.21)"/><path class="cls-1" d="M192.22,219.21l1.91-1.45a6.62,6.62,0,0,0,5.67,3.1c2.69,0,4.71-1.62,4.71-4.14,0-1.64-1.08-2.64-2.73-3.63l-2.56-1.53c-1.89-1.15-3.39-2.7-3.39-5.19,0-3.31,2.89-6.11,6.85-6.11a7.88,7.88,0,0,1,6.23,3.11l-1.7,1.54a6.13,6.13,0,0,0-4.73-2.4,3.75,3.75,0,0,0-4,3.58c0,1.69,1.23,2.6,2.85,3.56l2.57,1.52c2.09,1.23,3.29,2.71,3.29,5.18,0,3.93-3.16,6.73-7.63,6.73A8.49,8.49,0,0,1,192.22,219.21Z" transform="translate(-137.58 -102.21)"/><path class="cls-1" d="M219.91,200.66h3l2.54,22h-2.71L221.61,210c-.19-2.34-.43-4.66-.6-7.18h-.13c-1.17,2.53-2.29,4.76-3.53,7.18l-6.51,12.64H208Zm-6.09,13.12h9.67l-.48,2H213.3Z" transform="translate(-137.58 -102.21)"/><path class="cls-1" d="M233.37,200.66h3.11l1.92,11.9.73,4.54h.14l2.36-4.54,6.54-11.9h3.11l-4.41,22h-2.48l2.51-12.42c.43-2,1.07-4.54,1.6-6.46h-.12l-2.66,4.89-6.49,11.69h-1.46l-2.05-11.69L235,203.8h-.13c-.27,2-.57,4.5-.94,6.46l-2.5,12.42H229Z" transform="translate(-137.58 -102.21)"/><path class="cls-1" d="M258,200.66h3.11l1.92,11.9.73,4.54h.14l2.36-4.54,6.54-11.9h3.11l-4.41,22H269l2.51-12.42c.43-2,1.07-4.54,1.6-6.46H273l-2.66,4.89-6.49,11.69h-1.46l-2.05-11.69-.75-4.89h-.13c-.27,2-.57,4.5-.94,6.46L256,222.68h-2.43Z" transform="translate(-137.58 -102.21)"/><path class="cls-1" d="M282.53,200.66h2.61l-3.95,19.82h9.27l-.44,2.2H278.13Z" transform="translate(-137.58 -102.21)"/><path class="cls-1" d="M297.51,200.66h2.61l-2.52,12.59a12.16,12.16,0,0,0-.31,2.66c0,3.14,1.4,4.92,4.46,4.92,2.54,0,4.67-1.86,5.62-6.68l2.7-13.49h2.56l-2.74,13.61c-1.26,6.34-4.33,8.81-8.28,8.81-4.46,0-6.93-2.39-6.93-7A18,18,0,0,1,295,213Z" transform="translate(-137.58 -102.21)"/><path class="cls-1" d="M319.21,200.66h2.62l5,14.11,1.42,4.6h.13c.29-2.18.55-4.74,1-7l2.34-11.69h2.52l-4.41,22h-2.58l-5-14.06-1.43-4.73h-.13c-.29,2.27-.62,4.72-1.07,7l-2.34,11.84h-2.51Z" transform="translate(-137.58 -102.21)"/><path class="cls-1" d="M337.27,214.21c0-7,4.49-14,11.7-14a6.23,6.23,0,0,1,5.54,3.26l-1.84,1.38a4.34,4.34,0,0,0-3.84-2.39c-5.53,0-8.9,6.11-8.9,11.45,0,3.91,1.63,6.9,5.86,6.9a5.67,5.67,0,0,0,3.75-1.35l1.23-6h-4.54l.42-2.16h6.91l-1.91,9.54a9.75,9.75,0,0,1-6.24,2.23C340.1,223.08,337.27,219.56,337.27,214.21Z" transform="translate(-137.58 -102.21)"/><path class="cls-1" d="M356.43,219.21l1.92-1.45a6.61,6.61,0,0,0,5.67,3.1c2.68,0,4.71-1.62,4.71-4.14,0-1.64-1.08-2.64-2.74-3.63l-2.56-1.53c-1.88-1.15-3.39-2.7-3.39-5.19,0-3.31,2.89-6.11,6.85-6.11a7.85,7.85,0,0,1,6.23,3.11l-1.7,1.54a6.12,6.12,0,0,0-4.73-2.4,3.76,3.76,0,0,0-4,3.58c0,1.69,1.24,2.6,2.86,3.56l2.56,1.52c2.09,1.23,3.29,2.71,3.29,5.18,0,3.93-3.16,6.73-7.63,6.73A8.49,8.49,0,0,1,356.43,219.21Z" transform="translate(-137.58 -102.21)"/><path class="cls-1" d="M379.53,200.66h5.88c4.21,0,6.81,1.69,6.81,4.87,0,3-2.48,5-4.9,5.51l0,.14c2.27.52,4,1.95,4,4.47,0,4.89-3.9,7-9.13,7h-7.06Zm2.43,20c4.17,0,6.82-1.43,6.82-4.84,0-2.22-1.78-3.75-5-3.75h-3.88l-1.75,8.59Zm1.44-10.47c4.18,0,6.16-1.75,6.16-4.24,0-2-1.49-3.19-4.81-3.19h-3l-1.49,7.43Z" transform="translate(-137.58 -102.21)"/><path class="cls-1" d="M400,200.66h12.14l-.45,2.21h-9.56L400.75,210h8.09l-.45,2.21h-8.05l-1.7,8.27h9.86l-.44,2.2H395.62Z" transform="translate(-137.58 -102.21)"/><path class="cls-1" d="M415.77,200.66h2.66l-.32,12.11c-.13,2.37-.17,4.77-.34,7.15h.14c1-2.38,2.14-4.79,3.13-7.15l5.51-12.11h2.36l.29,12.11c.07,2.35.06,4.76.05,7.15h.14c.9-2.39,1.86-4.79,2.79-7.15L437,200.66h2.55l-9.06,22h-3.3l-.24-13.44c0-1.62,0-3.42.1-5.17h-.14c-.63,1.74-1.4,3.41-2.14,5.17l-6,13.44h-3.25Z" transform="translate(-137.58 -102.21)"/><path class="cls-1" d="M444.15,200.66h12.14l-.44,2.21h-9.56L444.87,210H453l-.45,2.21h-8l-1.7,8.27h9.86l-.45,2.2H439.75Z" transform="translate(-137.58 -102.21)"/><path class="cls-1" d="M458.32,214.21c0-7,4.49-14,11.7-14a6.24,6.24,0,0,1,5.54,3.26l-1.84,1.38a4.34,4.34,0,0,0-3.85-2.39c-5.52,0-8.89,6.11-8.89,11.45,0,3.91,1.63,6.9,5.86,6.9a5.63,5.63,0,0,0,3.75-1.35l1.23-6h-4.54l.43-2.16h6.9l-1.91,9.54a9.76,9.76,0,0,1-6.25,2.23C461.15,223.08,458.32,219.56,458.32,214.21Z" transform="translate(-137.58 -102.21)"/><path class="cls-1" d="M482.56,200.66h2.61l-2.52,12.59a12.16,12.16,0,0,0-.31,2.66c0,3.14,1.39,4.92,4.46,4.92,2.54,0,4.67-1.86,5.62-6.68l2.7-13.49h2.56l-2.74,13.61c-1.26,6.34-4.33,8.81-8.28,8.81-4.46,0-6.93-2.39-6.93-7a18,18,0,0,1,.34-3.09Z" transform="translate(-137.58 -102.21)"/><path class="cls-1" d="M504.26,200.66h2.62l5,14.11,1.42,4.6h.13c.29-2.18.55-4.74,1-7l2.34-11.69h2.52l-4.41,22h-2.58l-5-14.06-1.43-4.73h-.13c-.29,2.27-.62,4.72-1.07,7l-2.34,11.84h-2.52Z" transform="translate(-137.58 -102.21)"/><path class="cls-1" d="M522.32,214.21c0-7,4.49-14,11.69-14a6.24,6.24,0,0,1,5.55,3.26l-1.84,1.38a4.34,4.34,0,0,0-3.85-2.39c-5.52,0-8.89,6.11-8.89,11.45,0,3.91,1.63,6.9,5.86,6.9a5.67,5.67,0,0,0,3.75-1.35l1.23-6h-4.54l.42-2.16h6.91l-1.92,9.54a9.73,9.73,0,0,1-6.24,2.23C525.15,223.08,522.32,219.56,522.32,214.21Z" transform="translate(-137.58 -102.21)"/></g><g id="Ebene_4" data-name="Ebene 4"><path class="cls-1" d="M155,171.34a15.76,15.76,0,0,0,10.67-4.25c-.35-2.49-.53-5-.66-7.25A37.33,37.33,0,0,1,155,171.34Z" transform="translate(-137.58 -102.21)"/><path class="cls-1" d="M174.18,122.8c-24,0-33.74,16.6-33.74,32,0,9.3,5.11,15.49,12.47,16.39,2.71-6.13,7.61-17,8.93-20.21,1.1-2.68-7.75-4.31-8.9-9.94,0,0,17.22,10.42,32.66,5.43-3.9,6.16-12.91,4.14-13.35,6.66-.67,2.63-1.74,10.64-2.82,17.15H184l6.78-44.93A58.2,58.2,0,0,0,174.18,122.8Zm.08,19.91a4.32,4.32,0,1,1-2.31-5.65A4.33,4.33,0,0,1,174.26,142.71Z" transform="translate(-137.58 -102.21)"/><path class="cls-1" d="M243.21,123.84l-5.76,30.64c-1.23,6.19-2,11.53-2.67,15.82H220.62l.7-7-.18-.05c-5,6-10.46,8.12-15.82,8.12-8,0-11.78-4.79-11.78-12.79a48.5,48.5,0,0,1,.94-8.88l4.89-25.83h16.1l-4.6,24.44a36.62,36.62,0,0,0-.66,5.85c0,2.2.89,4.2,3.51,4.2,4.11,0,7.82-5.07,9.52-13.93l3.87-20.56Z" transform="translate(-137.58 -102.21)"/><path class="cls-1" d="M244.84,170.3l6.42-34.25h-5.9l2.29-12.21h5.92l.43-2.34c.92-5.1,3.07-10.76,7.91-14.73,4.08-3.45,9.39-4.56,14.18-4.56a20.89,20.89,0,0,1,7.58,1.16L281,116.1a11.8,11.8,0,0,0-4.27-.71c-3.64,0-6.19,2.81-6.83,6.16l-.45,2.29h8.62l-2.29,12.21h-8.52l-6.42,34.25Z" transform="translate(-137.58 -102.21)"/><path class="cls-1" d="M276.42,156.33c2.84,1.32,8.24,3.37,13,3.35,3.21,0,4.58-1.23,4.58-2.79s-1.44-3-5.5-4.84c-5.34-2.48-10.44-6.35-10.44-12.53,0-10.27,9.07-16.72,21.94-16.72,5.92,0,10.39,1.11,12.89,2.43l-3.68,11.22a25,25,0,0,0-9.83-2c-3.09,0-5.07.95-5.07,2.84,0,1.3,1.74,2.67,5.33,4.27,5,2.43,11.12,5.93,11.12,12.89,0,11-9.49,16.83-22.85,16.83-6.23,0-12.28-1.62-15.28-3.82Z" transform="translate(-137.58 -102.21)"/><path class="cls-1" d="M341.91,110.64l-2.43,13.2h9.4l-2.36,12.21h-9.43l-2.62,12.84a30.88,30.88,0,0,0-.7,5.24c0,2.06.85,3.64,3.77,3.64,1.11,0,2.51,0,3.76-.12l-2.08,12.58a30.24,30.24,0,0,1-8.88,1.11c-8.73,0-13.08-4.15-13.08-10.41a41.31,41.31,0,0,1,1-8.57l3.19-16.31h-5.64l2.29-12.21h5.66l1.8-9.47Z" transform="translate(-137.58 -102.21)"/><path class="cls-1" d="M386.34,167.64c-6.21,3-13.48,3.65-18.2,3.65-13.67,0-21.11-7.12-21.11-20,0-14.17,10.2-28.45,27.74-28.45,9.68,0,17.24,5.31,17.26,14.8,0,11.62-10.57,16.41-29.77,15.85a5.84,5.84,0,0,0,1.7,3c1.77,1.56,4.6,2.41,8.26,2.41a30.66,30.66,0,0,0,13.25-2.83Zm-13.48-33.2a8.94,8.94,0,0,0-9.09,7.37c9.8.09,13.25-1.3,13.25-4.28C377,135.86,375.51,134.44,372.86,134.44Z" transform="translate(-137.58 -102.21)"/><path class="cls-1" d="M392.62,170.3l12.68-67.05h16.1l-4.86,25.62.18,0c3.76-3.66,8.29-6.09,14-6.09,8.08,0,11.78,5.15,11.78,12.63a55.58,55.58,0,0,1-.92,8.57l-5,26.3h-16.1l4.7-24.83a30.61,30.61,0,0,0,.56-5.48c0-2.55-.94-4.3-3.61-4.3-4.18,0-7.84,5.29-9.51,14.19l-3.9,20.42Z" transform="translate(-137.58 -102.21)"/><path class="cls-1" d="M486.2,167.64c-6.21,3-13.48,3.65-18.2,3.65-13.67,0-21.11-7.12-21.11-20,0-14.17,10.2-28.45,27.75-28.45,9.67,0,17.23,5.31,17.25,14.8,0,11.62-10.58,16.41-29.77,15.85a5.84,5.84,0,0,0,1.7,3c1.77,1.56,4.6,2.41,8.26,2.41a30.66,30.66,0,0,0,13.25-2.83Zm-13.48-33.2a8.94,8.94,0,0,0-9.09,7.37c9.8.09,13.25-1.3,13.25-4.28C476.88,135.86,475.37,134.44,472.72,134.44Z" transform="translate(-137.58 -102.21)"/><path class="cls-1" d="M492.48,170.3l5.76-30.64c1.23-6.19,2-11.52,2.67-15.82h14.16l-.73,7.11h.19c4.44-5.83,9.94-8.15,15.82-8.15,8.47,0,12,5.29,12,12.63a56.9,56.9,0,0,1-.78,7.94l-5.12,26.93h-16.1l4.74-25.21a27.75,27.75,0,0,0,.48-4.89c0-2.67-.83-4.51-3.5-4.51-3.92,0-7.88,5.08-9.72,14.81l-3.76,19.8Z" transform="translate(-137.58 -102.21)"/></g></svg>